<svg width="47" height="49" viewBox="0 0 47 49" fill="none" xmlns="http://www.w3.org/2000/svg">
<path d="M19.696 31.8246V17.8288C19.696 17.4029 19.568 17.1222 19.312 16.9867C19.056 16.8512 18.7253 16.7834 18.32 16.7834H18V14.5186H29.712V16.7834H29.392C28.9867 16.7834 28.656 16.8512 28.4 16.9867C28.144 17.1222 28.016 17.4029 28.016 17.8288V31.8246C28.016 32.2505 28.144 32.5312 28.4 32.6667C28.656 32.8022 28.9867 32.87 29.392 32.87H29.712V35.1349H18V32.87H18.32C18.7253 32.87 19.056 32.8022 19.312 32.6667C19.568 32.5312 19.696 32.2505 19.696 31.8246Z" fill="#FF0000"/>
</svg>
