<svg width="70" height="57" viewBox="0 0 70 57" fill="none" xmlns="http://www.w3.org/2000/svg">
<path d="M66.9764 6.04568L67.0479 6.11509L56.8114 53.0292L56.8114 53.0292L56.8088 53.0415C56.6708 53.6896 56.4949 54.0724 56.3599 54.2791C56.2953 54.378 56.2452 54.429 56.2187 54.4523C56.1939 54.4742 56.181 54.4798 56.1773 54.4814C56.1731 54.4833 56.1542 54.4913 56.1089 54.4963C56.0613 54.5015 55.9765 54.5039 55.8465 54.4848C55.5987 54.4485 55.2293 54.3398 54.7311 54.0882L38.8294 42.6697L37.1604 41.4712L35.6614 42.8765L27.9003 50.1529L27.8846 50.1675L27.8692 50.1825C27.3761 50.661 27.1947 50.825 27.0096 50.9342C26.9389 50.9758 26.8396 51.0281 26.6319 51.0508C26.5534 50.7793 26.4508 50.44 26.3183 50.0706L20.7898 32.5931L20.3922 31.3362L19.1305 30.9543L3.47265 26.2149C3.67167 26.1177 3.90032 26.0162 4.16164 25.9125L66.1699 2.70446L66.2262 2.68338L66.2815 2.65962C67.018 2.3428 67.2727 2.58878 67.2731 2.5891C67.282 2.59759 67.7415 3.0559 67.3357 4.64135L66.9764 6.04568ZM2.37254 26.9487C2.37225 26.9487 2.37482 26.9448 2.38111 26.9371C2.37598 26.9449 2.37283 26.9487 2.37254 26.9487Z" stroke="black" stroke-width="5"/>
</svg>
