<svg width="60" height="58" viewBox="0 0 60 58" fill="none" xmlns="http://www.w3.org/2000/svg">
<path d="M43.7452 34.7565C42.9991 34.3965 39.3292 32.6613 38.646 32.4196C37.9602 32.1804 37.4629 32.062 36.963 32.7821C36.4681 33.4999 35.0363 35.1166 34.6018 35.5951C34.1672 36.076 33.7301 36.134 32.9841 35.7764C32.2381 35.4139 29.8316 34.6575 26.9806 32.2118C24.7626 30.3075 23.2629 27.9561 22.8284 27.2359C22.3938 26.5181 22.7832 26.1291 23.1549 25.7714C23.4915 25.45 23.9035 24.9328 24.2752 24.5147C24.6495 24.0942 24.7726 23.7946 25.0238 23.3136C25.2725 22.8351 25.1494 22.4171 24.961 22.057C24.7726 21.6969 23.2805 18.1613 22.6601 16.7234C22.0522 15.3242 21.4368 15.5151 20.9796 15.4909C20.5026 15.4726 20.0252 15.4646 19.5478 15.4667C19.0504 15.4667 18.2416 15.6456 17.5584 16.3657C16.8751 17.0835 14.946 18.8211 14.946 22.3566C14.946 25.8898 17.6212 29.3046 17.9929 29.7855C18.3672 30.264 23.2579 37.5188 30.746 40.629C32.5269 41.3685 33.916 41.8108 35.0012 42.1394C36.7897 42.688 38.4174 42.6107 39.701 42.4246C41.1353 42.2192 44.117 40.687 44.7399 39.0099C45.3629 37.3327 45.3629 35.8948 45.1745 35.5951C44.9886 35.2955 44.4912 35.1166 43.7427 34.7565M30.1255 52.6471H30.1155C25.6688 52.6474 21.3038 51.4972 17.478 49.3169L16.5712 48.7998L7.17406 51.1729L9.68096 42.3569L9.09066 41.4531C6.60496 37.6451 5.28997 33.2381 5.29765 28.7415C5.30016 15.5707 16.4406 4.85517 30.1356 4.85517C36.7671 4.85517 43.0017 7.34434 47.6889 11.8587C50.0016 14.0738 51.8347 16.7082 53.082 19.6095C54.3294 22.5107 54.9663 25.6212 54.9559 28.7608C54.9484 41.9316 43.8105 52.6471 30.1255 52.6471ZM51.2584 8.42942C48.4907 5.74915 45.1977 3.62397 41.5701 2.17703C37.9425 0.730085 34.0525 -0.00985091 30.1255 9.90289e-05C13.6599 9.90289e-05 0.258728 12.893 0.251193 28.7391C0.251193 33.8044 1.62522 38.7489 4.24013 43.1061L0 58L15.8377 54.0028C20.2175 56.2985 25.1254 57.5016 30.113 57.5022H30.1255C46.5887 57.5022 59.9923 44.6093 59.9999 28.7608C60.012 24.9842 59.2457 21.2428 57.7452 17.753C56.2448 14.2632 54.04 11.0942 51.2584 8.42942Z" fill="black"/>
</svg>
