<svg version="1.1" id="Layer_1" xmlns="http://www.w3.org/2000/svg" xmlns:xlink="http://www.w3.org/1999/xlink" x="0px" y="0px"
	 viewBox="0 0 70 57" style="enable-background:new 0 0 70 57;" xml:space="preserve">
<path d="M61.1,9.9l-8,36.8l-11.3-8.1l-1.7-1.2c-0.9-0.6-1.9-0.9-2.9-0.9c-1.2,0-2.5,0.5-3.4,1.4l-1.5,1.4l-3.2,3l-3.5-11.1l-0.4-1.3
	c-0.5-1.6-1.7-2.8-3.3-3.3l-1.3-0.4L19,25.7L61.1,9.9 M66.9,2.5c-0.2,0-0.4,0-0.7,0.2l-0.1,0l-0.1,0l-62,23.2
	c-0.3,0.1-0.5,0.2-0.7,0.3L19.1,31l1.3,0.4l0.4,1.3l5.5,17.5c0.1,0.4,0.2,0.7,0.3,1c0.2,0,0.3-0.1,0.4-0.1c0.2-0.1,0.4-0.3,0.9-0.8
	l0,0l0,0l7.8-7.3l1.5-1.4l1.7,1.2l15.9,11.4c0.5,0.3,0.9,0.4,1.1,0.4c0.1,0,0.1,0,0.2,0c0,0,0.1,0,0.1,0c0,0,0.1,0,0.1,0
	c0,0,0,0,0,0c0,0,0.1-0.1,0.1-0.2c0.1-0.2,0.3-0.6,0.4-1.2l0,0L67,6.1L67,6l0.4-1.4c0.4-1.6-0.1-2-0.1-2.1
	C67.3,2.6,67.2,2.5,66.9,2.5L66.9,2.5z M2.4,26.9C2.4,26.9,2.4,26.9,2.4,26.9C2.4,26.9,2.4,26.9,2.4,26.9L2.4,26.9z"/>
</svg>
